HIERARCHY
ROOT Hips
{
  OFFSET -21.6994 31.6921 0
  CHANNELS 6 Xposition Yposition Zposition Zrotation Xrotation Yrotation
  JOINT Bip01_Pelvis
  {
    OFFSET 0 0 0
    CHANNELS 6 Xposition Yposition Zposition Zrotation Xrotation Yrotation
    JOINT BN_Tail_01
    {
      OFFSET -7.25226 -1.74978 0
      CHANNELS 6 Xposition Yposition Zposition Zrotation Xrotation Yrotation
      JOINT BN_Tail_02
      {
        OFFSET 15.788 0 0
        CHANNELS 6 Xposition Yposition Zposition Zrotation Xrotation Yrotation
        JOINT BN_Tail_03
        {
          OFFSET 16.0015 0 0
          CHANNELS 6 Xposition Yposition Zposition Zrotation Xrotation Yrotation
          JOINT BN_Tail_04
          {
            OFFSET 16.1689 0 0
            CHANNELS 6 Xposition Yposition Zposition Zrotation Xrotation Yrotation
            End Site
            {
              OFFSET 0 0 0
            }
          }
        }
      }
    }
    JOINT Bip01_Spine
    {
      OFFSET 6.38383 2.70859 0.585432
      CHANNELS 6 Xposition Yposition Zposition Zrotation Xrotation Yrotation
      JOINT BN_Mane_02
      {
        OFFSET 6.12662 8.45826 0
        CHANNELS 6 Xposition Yposition Zposition Zrotation Xrotation Yrotation
        End Site
        {
          OFFSET 0 0 0
        }
      }
      JOINT Bip01_R_Thigh
      {
        OFFSET -7.04074 -2.18223 -5.47025
        CHANNELS 6 Xposition Yposition Zposition Zrotation Xrotation Yrotation
        JOINT Bip01_R_Calf
        {
          OFFSET 13.6591 0 0
          CHANNELS 6 Xposition Yposition Zposition Zrotation Xrotation Yrotation
          JOINT Bip01_R_HorseLink
          {
            OFFSET 9.07516 0 0
            CHANNELS 6 Xposition Yposition Zposition Zrotation Xrotation Yrotation
            JOINT Bip01_R_Foot
            {
              OFFSET 8.13856 0 0
              CHANNELS 6 Xposition Yposition Zposition Zrotation Xrotation Yrotation
              JOINT Bip01_R_Toe0
              {
                OFFSET 3.79737 6.30086 0
                CHANNELS 6 Xposition Yposition Zposition Zrotation Xrotation Yrotation
                JOINT Bip01_R_Toe0Nub
                {
                  OFFSET 0.838764 0 0
                  CHANNELS 6 Xposition Yposition Zposition Zrotation Xrotation Yrotation
                  End Site
                  {
                    OFFSET 0 0 0
                  }
                }
              }
            }
          }
        }
      }
      JOINT Bip01_L_Thigh
      {
        OFFSET -6.18667 -2.14873 5.3508
        CHANNELS 6 Xposition Yposition Zposition Zrotation Xrotation Yrotation
        JOINT Bip01_L_Calf
        {
          OFFSET 13.6591 0 0
          CHANNELS 6 Xposition Yposition Zposition Zrotation Xrotation Yrotation
          JOINT Bip01_L_HorseLink
          {
            OFFSET 9.07515 0 0
            CHANNELS 6 Xposition Yposition Zposition Zrotation Xrotation Yrotation
            JOINT Bip01_L_Foot
            {
              OFFSET 8.13856 0 0
              CHANNELS 6 Xposition Yposition Zposition Zrotation Xrotation Yrotation
              JOINT Bip01_L_Toe0
              {
                OFFSET 3.79737 6.30086 0
                CHANNELS 6 Xposition Yposition Zposition Zrotation Xrotation Yrotation
                JOINT Bip01_L_Toe0Nub
                {
                  OFFSET 0.838764 0 0
                  CHANNELS 6 Xposition Yposition Zposition Zrotation Xrotation Yrotation
                  End Site
                  {
                    OFFSET 0 0 0
                  }
                }
              }
            }
          }
        }
      }
      JOINT Bip01_Spine1
      {
        OFFSET 12.1687 -0.0105438 0
        CHANNELS 6 Xposition Yposition Zposition Zrotation Xrotation Yrotation
        JOINT BN_Mane_R_01
        {
          OFFSET -0.157498 5.09008 -6.54008
          CHANNELS 6 Xposition Yposition Zposition Zrotation Xrotation Yrotation
          End Site
          {
            OFFSET 0 0 0
          }
        }
        JOINT BN_Mane_R_02
        {
          OFFSET -0.1575 5.09007 6.54
          CHANNELS 6 Xposition Yposition Zposition Zrotation Xrotation Yrotation
          End Site
          {
            OFFSET 0 0 0
          }
        }
        JOINT BN_Mane_01
        {
          OFFSET 8.29709 8.50414 0
          CHANNELS 6 Xposition Yposition Zposition Zrotation Xrotation Yrotation
          End Site
          {
            OFFSET 0 0 0
          }
        }
        JOINT Bip01_Spine2
        {
          OFFSET 13.2802 -0.0100708 1.51992e-005
          CHANNELS 6 Xposition Yposition Zposition Zrotation Xrotation Yrotation
          JOINT Bip01_Neck
          {
            OFFSET 12.4891 -6.66662 0
            CHANNELS 6 Xposition Yposition Zposition Zrotation Xrotation Yrotation
            JOINT Bip01_R_Clavicle
            {
              OFFSET -7.4542 -2.82621 -1.17874
              CHANNELS 6 Xposition Yposition Zposition Zrotation Xrotation Yrotation
              JOINT Bip01_R_UpperArm
              {
                OFFSET 13.2557 0 0
                CHANNELS 6 Xposition Yposition Zposition Zrotation Xrotation Yrotation
                JOINT Bip01_R_Forearm
                {
                  OFFSET 12.8897 0 0
                  CHANNELS 6 Xposition Yposition Zposition Zrotation Xrotation Yrotation
                  JOINT Bip01_R_Hand
                  {
                    OFFSET 11.2622 0 0
                    CHANNELS 6 Xposition Yposition Zposition Zrotation Xrotation Yrotation
                    JOINT Bip01_R_Finger0
                    {
                      OFFSET 3.98015 -0.208661 -0.0949803
                      CHANNELS 6 Xposition Yposition Zposition Zrotation Xrotation Yrotation
                      JOINT Bip01_R_Finger0Nub
                      {
                        OFFSET 6.57561 0 0
                        CHANNELS 6 Xposition Yposition Zposition Zrotation Xrotation Yrotation
                        End Site
                        {
                          OFFSET 0 0 0
                        }
                      }
                    }
                  }
                }
              }
            }
            JOINT Bip01_L_Clavicle
            {
              OFFSET -7.4541 -2.82679 1.17708
              CHANNELS 6 Xposition Yposition Zposition Zrotation Xrotation Yrotation
              JOINT Bip01_L_UpperArm
              {
                OFFSET 13.2558 0 0
                CHANNELS 6 Xposition Yposition Zposition Zrotation Xrotation Yrotation
                JOINT Bip01_L_Forearm
                {
                  OFFSET 12.8897 0 0
                  CHANNELS 6 Xposition Yposition Zposition Zrotation Xrotation Yrotation
                  JOINT Bip01_L_Hand
                  {
                    OFFSET 11.2622 0 0
                    CHANNELS 6 Xposition Yposition Zposition Zrotation Xrotation Yrotation
                    JOINT Bip01_L_Finger0
                    {
                      OFFSET 3.98014 -0.20866 0.0949764
                      CHANNELS 6 Xposition Yposition Zposition Zrotation Xrotation Yrotation
                      JOINT Bip01_L_Finger0Nub
                      {
                        OFFSET 6.57562 0 0
                        CHANNELS 6 Xposition Yposition Zposition Zrotation Xrotation Yrotation
                        End Site
                        {
                          OFFSET 0 0 0
                        }
                      }
                    }
                  }
                }
              }
            }
            JOINT Bip01_Neck1
            {
              OFFSET 4.19352 -0.00332451 0
              CHANNELS 6 Xposition Yposition Zposition Zrotation Xrotation Yrotation
              JOINT Bip01_Head
              {
                OFFSET 4.17604 0.298252 0
                CHANNELS 6 Xposition Yposition Zposition Zrotation Xrotation Yrotation
                JOINT BN_Eye_R_01
                {
                  OFFSET 6.53258 -3.90694 -2.55361
                  CHANNELS 6 Xposition Yposition Zposition Zrotation Xrotation Yrotation
                  End Site
                  {
                    OFFSET 0 0 0
                  }
                }
                JOINT BN_Eye_L_01
                {
                  OFFSET 6.5326 -3.90694 2.55371
                  CHANNELS 6 Xposition Yposition Zposition Zrotation Xrotation Yrotation
                  End Site
                  {
                    OFFSET 0 0 0
                  }
                }
                JOINT BN_Ear_R_01
                {
                  OFFSET 1.75934 -4.1584 -4.45634
                  CHANNELS 6 Xposition Yposition Zposition Zrotation Xrotation Yrotation
                  End Site
                  {
                    OFFSET 0 0 0
                  }
                }
                JOINT BN_Ear_L_01
                {
                  OFFSET 1.75933 -4.15841 4.45616
                  CHANNELS 6 Xposition Yposition Zposition Zrotation Xrotation Yrotation
                  End Site
                  {
                    OFFSET 0 0 0
                  }
                }
                JOINT BN_Beard_L_01
                {
                  OFFSET 11.2964 -1.06183 2.32054
                  CHANNELS 6 Xposition Yposition Zposition Zrotation Xrotation Yrotation
                  End Site
                  {
                    OFFSET 0 0 0
                  }
                }
                JOINT BN_Beard_R_01
                {
                  OFFSET 11.2964 -1.06182 -2.32036
                  CHANNELS 6 Xposition Yposition Zposition Zrotation Xrotation Yrotation
                  End Site
                  {
                    OFFSET 0 0 0
                  }
                }
                JOINT BN_Mouth_0
                {
                  OFFSET 1.3149 1.30001 0
                  CHANNELS 6 Xposition Yposition Zposition Zrotation Xrotation Yrotation
                  End Site
                  {
                    OFFSET 0 0 0
                  }
                }
                JOINT Bip01_HeadNub
                {
                  OFFSET 12.6869 0 0
                  CHANNELS 6 Xposition Yposition Zposition Zrotation Xrotation Yrotation
                  End Site
                  {
                    OFFSET 0 0 0
                  }
                }
              }
            }
          }
        }
      }
    }
  }
}
MOTION
Frames:	4
Frame Time:	0.0333333
-21.5113 24.7938 1.7572e-007 -163.477 -90 -90 0 -5.68434e-014 0 -85.7612 39.0951 -85.744 -7.25225 -1.74978 2.22045e-015 15.4686 5.74346 175.029 15.788 0 8.88178e-016 -23.5 5.35348 4.40086 16.0015 -3.55271e-015 -7.10543e-015 -33.2759 3.83516 -3.89837 16.1689 3.8147e-006 1.90735e-006 -35.9032 5.88426 -12.2352 3.27135 6.13686 0.042921 5.64429 -6.32023 -4.60257 6.12661 8.45826 6.13075e-009 -67.7094 3.15375 -172.563 -4.33434 -5.14793 -5.7445 -90.7069 -8.68166 169.936 13.6591 -3.55271e-015 -9.53674e-007 -119.048 -9.22245e-006 3.49529e-006 9.07516 5.72205e-006 -4.10338e-013 75.8342 9.16211e-006 6.59427e-006 8.13855 0 -9.53674e-007 -8.64868 -16.2835 -0.786164 3.79738 6.30087 1.89439e-010 88.8006 1.12474e-009 -2.32667e-009 0.838772 -7.62939e-006 -2.66453e-015 -5.97551e-007 9.74204e-011 -2.01504e-010 -3.46809 -6.34295 5.00944 -121.083 10.4961 -161.799 13.6591 3.8147e-006 -2.46914e-013 -110.036 -6.52971e-007 6.84046e-006 9.07515 -9.53674e-007 -4.76837e-007 67.5868 2.91697e-006 -7.49718e-006 8.13857 -6.88338e-015 0 -18.4659 18.0297 1.53803 3.79737 6.30086 5.79261e-011 84.9713 2.6163e-007 2.19146e-008 0.83878 -3.8147e-006 -8.88178e-016 179.96 -9.96835e-006 -7.10091e-005 12.169 -0.0105667 -7.65832e-012 41.0071 -0.68629 -3.64213 -0.157497 5.09008 -6.54007 -92.7406 -0.0220419 -167.965 -0.157497 5.09007 6.54 87.255 -0.000389039 12.0139 8.29709 8.50413 -2.02008e-008 -91.651 -0.0231628 -179.977 13.2799 -0.0100098 2.98261e-008 23.5757 -1.48014 -1.78487 12.4887 -6.66656 8.0867e-008 -1.22084 -0.0140703 -0.125338 -7.60414 -2.40651 -1.15146 -178.986 -50.7285 84.6462 13.2557 1.90735e-006 2.32925e-013 27.7961 40.0904 -81.8462 12.8897 -3.8147e-006 -1.19209e-007 -60.4225 -1.54215e-005 -1.6842e-005 11.2622 1.90735e-006 1.1921e-007 -144.637 80.4281 166.341 3.98014 -0.208661 -0.0949765 -3.50792 -10.7953 40.091 6.57563 -2.66453e-015 1.78814e-007 -179.96 1.70692e-005 -2.05153e-005 -7.59984 -2.39555 1.20434 -178.663 53.4762 -101.901 13.2557 -1.77636e-014 1.90735e-006 43.6804 -32.8077 94.8205 12.8897 2.98023e-007 5.32907e-015 -95.0551 -6.22253e-006 1.10172e-006 11.2623 -9.53673e-007 -2.38419e-007 -166.582 -85.8666 -160.391 3.98015 -0.208661 0.0949764 -13.7103 6.99406 -54.9378 6.57562 1.19209e-007 1.06581e-014 1.25174e-007 7.00523e-009 2.98721e-008 4.1942 -0.00331497 2.98299e-008 3.41718 0.0736241 -0.0957725 4.17604 0.298248 -2.03269e-009 16.6582 2.91702 1.28413 6.53259 -3.90694 -2.55361 133.025 18.1401 163.594 6.53259 -3.90695 2.55371 -46.9761 18.1112 -16.4184 1.75934 -4.15841 -4.45634 25.0061 -41.234 130.7 1.75934 -4.15841 4.45616 -154.928 -41.3415 -47.6855 11.2964 -1.06183 2.32054 153.415 7.87509 -100.473 11.2964 -1.06183 -2.32035 -26.9091 8.3168 86.2031 1.31489 1.30001 -2.51721e-011 -157.176 -0.0419922 -179.992 12.6869 3.8147e-006 3.88578e-016 -3.18873e-007 4.42059e-009 -2.94079e-009 
-21.5166 24.0477 1.88739e-007 -161.525 -90 -90 0 -5.68434e-014 0 -86.7762 33.6623 -83.6671 -7.25225 -1.74978 1.33227e-015 10.3777 5.3427 174.159 15.788 0 0 -25.8472 4.90924 5.10263 16.0015 0 -1.37668e-014 -30.2064 2.16295 -2.42016 16.1689 3.8147e-006 1.90735e-006 -33.1918 3.73346 -9.21794 3.82449 5.80228 0.270984 6.25856 -5.79984 -5.73177 6.12661 8.45826 7.17763e-009 -68.708 3.71927 -170.508 -5.03252 -4.74702 -5.73594 -74.6407 -7.44374 172.101 13.6591 -1.77636e-015 -9.53674e-007 -122.721 -5.24452e-005 -2.61266e-005 9.07516 5.72205e-006 -3.92575e-013 99.0916 2.77884e-006 4.01086e-006 8.13855 0 -9.53674e-007 -6.739 -13.4225 3.01321 3.79738 6.30087 -6.20135e-011 82.436 0.0023084 0.000306529 0.838772 -7.62939e-006 -4.44089e-015 -5.97551e-007 9.74204e-011 -2.01504e-010 -3.9539 -5.84423 5.0092 -115.351 7.23931 -167.276 13.6591 3.8147e-006 -1.45661e-013 -105.897 -2.33523e-006 7.8852e-006 9.07515 -9.53674e-007 -4.76837e-007 75.3622 2.38124e-006 -8.75605e-006 8.13857 -9.54792e-015 -3.55271e-015 -18.5803 11.5859 -1.57989 3.79737 6.30086 1.12476e-010 84.9713 9.97902e-006 8.76492e-007 0.83878 -3.8147e-006 3.55271e-015 179.96 -9.96835e-006 -7.10091e-005 12.169 -0.0105667 -8.96683e-012 29.8309 -0.436213 -3.62904 -0.157497 5.09008 -6.54007 -92.7406 -0.0220419 -167.965 -0.157497 5.09007 6.54 87.255 -0.000389039 12.0139 8.29709 8.50413 -2.25753e-008 -91.651 -0.0231628 -179.977 13.2799 -0.0100098 2.98289e-008 27.9697 -1.51008 -1.75458 12.4887 -6.66656 8.52982e-008 -0.575628 -0.015603 -0.113014 -7.63103 -2.3198 -1.15442 -179.625 -51.2849 88.4711 13.2557 1.90735e-006 1.50102e-013 29.8869 37.445 -84.4776 12.8897 -3.8147e-006 -1.19209e-007 -67.3776 -1.3673e-005 -1.72876e-005 11.2622 1.90735e-006 1.1921e-007 -143.74 78.1537 166.04 3.98014 -0.208661 -0.0949765 -4.06042 -11.3307 45.298 6.57563 2.66453e-015 1.78814e-007 -179.96 1.70694e-005 -2.05153e-005 -7.62662 -2.31227 1.20138 -179.323 53.364 -103.457 13.2557 -7.10543e-015 1.90735e-006 43.9306 -36.4633 96.1709 12.8897 2.98023e-007 8.88178e-016 -104.023 -8.43649e-006 -6.80844e-007 11.2623 -9.53674e-007 -2.38419e-007 -169.106 -85.9234 -162.194 3.98015 -0.208661 0.0949764 -12.9081 7.53635 -56.5847 6.57562 1.19209e-007 0 1.25174e-007 7.00524e-009 2.98721e-008 4.1942 -0.00331497 2.9831e-008 3.06327 0.0750479 -0.079738 4.17604 0.298248 -2.2324e-009 19.2061 3.066 1.05219 6.53259 -3.90694 -2.55361 133.025 18.1402 163.594 6.53259 -3.90695 2.55371 -46.9761 18.1112 -16.4184 1.75934 -4.15841 -4.45634 24.9252 -40.849 128.224 1.75934 -4.15841 4.45616 -155.03 -40.9867 -50.6342 11.2964 -1.06183 2.32054 153.785 9.33403 -103.624 11.2964 -1.06183 -2.32035 -26.7054 11.2175 84.8489 1.31489 1.30001 -2.16457e-010 -156.199 -0.0427246 -179.991 12.6869 3.8147e-006 -1.22125e-015 -3.18873e-007 4.42059e-009 -2.94079e-009 
-21.5236 23.4239 1.99604e-007 -159.334 -90 -90 0 -5.68434e-014 0 -87.434 27.0275 -81.878 -7.25225 -1.74978 2.44249e-015 6.05706 4.98863 173.485 15.788 7.10543e-015 -8.88178e-016 -24.2202 4.69939 5.25528 16.0015 0 -2.04281e-014 -25.7635 0.544406 -0.0118116 16.1689 3.8147e-006 1.90735e-006 -29.1217 2.79091 -6.14242 4.44921 5.32236 0.512793 7.2742 -5.51464 -6.81071 6.12661 8.45826 8.72412e-009 -70.4631 3.944 -169.532 -5.80672 -4.12298 -5.71766 -59.2006 -5.56302 174.129 13.6591 -1.06581e-014 -9.53674e-007 -115.428 -0.00534025 -0.00253086 9.07516 5.72205e-006 -2.8777e-013 112.811 2.32992e-006 2.81291e-006 8.13855 0 -9.53674e-007 -5.4872 -9.27361 5.21229 3.79738 6.30087 2.90697e-010 74.4663 0.00407765 0.00113341 0.838772 -7.62939e-006 0 -5.97551e-007 9.74204e-011 -2.01504e-010 -4.52512 -5.16662 5.01052 -110.907 3.79519 -171.474 13.6591 3.8147e-006 -7.54952e-014 -103.678 -1.89091e-006 8.97285e-006 9.07515 -9.53674e-007 -4.76837e-007 83.9981 1.23361e-006 -9.60386e-006 8.13857 -9.76996e-015 0 -20.8015 5.76401 -2.81155 3.79737 6.30086 -3.69926e-012 84.9713 2.38502e-008 1.50676e-009 0.83878 -3.8147e-006 -4.44089e-015 179.96 -9.96835e-006 -7.10091e-005 12.169 -0.0105667 -1.08984e-011 17.229 -0.148052 -3.52228 -0.157497 5.09008 -6.54007 -92.7406 -0.022027 -167.965 -0.157497 5.09007 6.54 87.255 -0.00038914 12.0139 8.29709 8.50413 -1.95711e-008 -91.651 -0.0231628 -179.978 13.2799 -0.0100098 2.98254e-008 32.4979 -1.4891 -1.75916 12.4887 -6.66656 8.86725e-008 -0.0561342 -0.0166381 -0.10153 -7.65125 -2.2509 -1.1574 179.872 -51.982 92.4328 13.2557 1.90735e-006 7.9936e-014 32.0743 35.9366 -87.0503 12.8897 -3.8147e-006 -1.19209e-007 -74.2776 -1.1058e-005 -1.74716e-005 11.2622 1.90735e-006 1.1921e-007 -143.68 76.157 166.321 3.98014 -0.208661 -0.0949765 -4.48418 -11.9256 49.2381 6.57563 5.77315e-015 1.78814e-007 -179.96 1.70694e-005 -2.05155e-005 -7.64676 -2.2432 1.1984 -179.862 53.1967 -105.149 13.2557 -2.4869e-014 1.90735e-006 44.9601 -42.2809 99.2431 12.8897 2.98023e-007 8.88178e-016 -110.759 -1.01521e-005 -2.36955e-006 11.2623 -9.53674e-007 -2.38419e-007 -171.91 -85.7194 -164.28 3.98015 -0.208661 0.0949764 -11.1465 9.07323 -60.5324 6.57562 1.19209e-007 3.55271e-015 1.25174e-007 7.00523e-009 2.98721e-008 4.1942 -0.00331497 2.98319e-008 2.64761 0.0766568 -0.056867 4.17604 0.298248 -2.40451e-009 21.3529 3.11125 0.908568 6.53259 -3.90694 -2.55361 133.025 18.1402 163.594 6.53259 -3.90695 2.55371 -46.9761 18.1112 -16.4184 1.75934 -4.15841 -4.45634 24.8844 -40.4703 126.54 1.75934 -4.15841 4.45616 -155.082 -40.5815 -52.7501 11.2964 -1.06183 2.32054 154.095 10.3357 -105.935 11.2964 -1.06183 -2.32035 -26.5345 13.3763 83.8949 1.31489 1.30001 -9.70179e-011 -155.824 -0.0370331 -179.992 12.6869 3.8147e-006 -1.11022e-015 -3.18873e-007 4.42059e-009 -2.94079e-009 
-21.5322 23.0986 2.05229e-007 -157.519 -90 -90 0 -5.68434e-014 0 -87.7401 19.7385 -80.4124 -7.25225 -1.74978 2.44249e-015 2.58497 4.68853 173.019 15.788 0 0 -20.6195 4.54462 5.32465 16.0015 -3.55271e-015 -2.13163e-014 -20.1478 -1.0316 3.04598 16.1689 3.8147e-006 1.90735e-006 -24.032 2.80575 -3.0478 5.06337 4.71215 0.747136 7.64047 -5.35898 -7.82781 6.12661 8.45826 9.36845e-009 -73.5348 3.80159 -169.7 -6.48062 -3.40246 -5.69134 -47.5995 -3.15971 175.531 13.6591 -7.10543e-015 -9.53674e-007 -99.9186 1.74901e-007 8.76593e-006 9.07516 5.72205e-006 -1.95399e-013 113.076 1.5415e-006 1.88056e-006 8.13855 -3.55271e-015 -9.53674e-007 -3.61319 -5.18382 5.27428 3.79738 6.30087 2.17754e-010 68.6252 0.00367136 0.00143692 0.838772 -7.62939e-006 -3.55271e-015 -5.97551e-007 9.74204e-011 -2.01504e-010 -5.00856 -4.41691 5.01517 -105.651 2.15045 -173.909 13.6591 3.8147e-006 -3.64153e-014 -107.994 -2.95713e-006 9.17552e-006 9.07515 -9.53674e-007 -4.76837e-007 97.227 -1.07955e-006 -9.8464e-006 8.13857 -1.59872e-014 -1.77636e-015 -27.9234 2.81193 -2.58146 3.79737 6.30086 -1.81544e-012 84.9713 9.97953e-006 8.77527e-007 0.83878 -3.8147e-006 -4.44089e-015 179.96 -9.96835e-006 -7.10091e-005 12.169 -0.0105667 -1.17025e-011 5.60975 0.0933055 -3.31381 -0.157497 5.09008 -6.54007 -92.7406 -0.0220269 -167.965 -0.157497 5.09007 6.54 87.255 -0.000384196 12.0139 8.29709 8.50413 -9.80481e-009 -91.651 -0.0231628 -179.978 13.2799 -0.0100098 2.98139e-008 35.8025 -1.43532 -1.82623 12.4887 -6.66656 9.06434e-008 0.314617 -0.0172344 -0.0904377 -7.66538 -2.19965 -1.1603 179.508 -52.6176 96.2818 13.2557 1.90735e-006 8.34888e-014 34.3225 35.6769 -89.7943 12.8897 -3.8147e-006 -1.19209e-007 -80.6993 -1.73683e-005 -1.58834e-005 11.2622 1.90735e-006 1.19209e-007 -144.023 74.7034 166.785 3.98014 -0.208661 -0.0949765 -4.67108 -12.5371 52.2144 6.57563 0 1.78814e-007 -179.96 1.70694e-005 -2.05157e-005 -7.66083 -2.19364 1.19554 179.75 53.1092 -107.038 13.2557 -1.42109e-014 1.90735e-006 47.9809 -50.1622 104.92 12.8897 2.98023e-007 8.88178e-016 -116.033 -9.69968e-006 -4.6332e-006 11.2623 -9.53674e-007 -2.38418e-007 -175.368 -85.2789 -166.849 3.98015 -0.208661 0.0949764 -8.17661 11.4404 -66.3405 6.57562 1.19209e-007 1.42108e-014 1.25174e-007 7.00523e-009 2.98721e-008 4.1942 -0.00331497 2.98323e-008 2.20687 0.0778463 -0.0367012 4.17604 0.298248 -2.53054e-009 23.519 3.07519 0.871259 6.53259 -3.90694 -2.55361 133.025 18.1401 163.594 6.53259 -3.90695 2.55371 -46.9761 18.1112 -16.4184 1.75934 -4.15841 -4.45634 24.8679 -40.1742 125.476 1.75934 -4.15841 4.45616 -155.109 -40.2335 -54.2002 11.2964 -1.06183 2.32054 154.274 11.0601 -107.128 11.2964 -1.06183 -2.32035 -26.4559 14.681 83.4468 1.31489 1.30001 3.1353e-010 -155.445 -0.0312958 -179.993 12.6869 3.8147e-006 1.27676e-015 -3.18873e-007 4.42059e-009 -2.94079e-009 
